<svg xmlns="http://www.w3.org/2000/svg" xmlns:svg="http://www.w3.org/2000/svg" id="svg2" width="512" height="512" version="1.1"><metadata id="metadata7"/><g id="layer1" transform="translate(0,-540.36218)"><g id="g4715" transform="matrix(0.74909414,0,0,0.54695769,-127.5362,500.80693)"><rect id="rect4717" width="683.492" height="936.087" x="170.254" y="72.319" rx="0" ry="0" style="opacity:1;fill:#0090d0;fill-opacity:1;stroke:none;stroke-width:200;stroke-linecap:butt;stroke-linejoin:miter;stroke-miterlimit:4;stroke-dasharray:none;stroke-dashoffset:0;stroke-opacity:1"/><path style="color:#000;font-style:normal;font-variant:normal;font-weight:400;font-stretch:normal;font-size:medium;line-height:normal;font-family:sans-serif;text-indent:0;text-align:start;text-decoration:none;text-decoration-line:none;text-decoration-style:solid;text-decoration-color:#000;letter-spacing:normal;word-spacing:normal;text-transform:none;direction:ltr;block-progression:tb;writing-mode:lr-tb;baseline-shift:baseline;text-anchor:start;white-space:normal;clip-rule:nonzero;display:inline;overflow:visible;visibility:visible;opacity:1;isolation:auto;mix-blend-mode:normal;color-interpolation:sRGB;color-interpolation-filters:linearRGB;solid-color:#000;solid-opacity:1;fill:#0060a0;fill-opacity:1;fill-rule:evenodd;stroke:none;stroke-width:200;stroke-linecap:butt;stroke-linejoin:miter;stroke-miterlimit:4;stroke-dasharray:none;stroke-dashoffset:0;stroke-opacity:1;color-rendering:auto;image-rendering:auto;shape-rendering:auto;text-rendering:auto;enable-background:accumulate" id="path4719" d="m 852.8281,116.7196 c -28.786,8.12778 -59.6315,18.96019 -93.6445,29.17578 -66.2279,19.89117 -223.2815,56.81836 -302.4941,56.81836 -130.4325,0 -208.0131,-34.94088 -286.4356,-54.35937 l 0,101.33203 c 78.4225,19.41849 156.0031,54.35937 286.4356,54.35937 79.2126,0 236.2662,-36.92719 302.4941,-56.81836 34.3747,-10.32422 65.5147,-21.27804 94.5625,-29.43359 l 0,-91.125 c 0,-3.40199 -0.3256,-6.72358 -0.918,-9.94922 z"/><path style="color:#000;font-style:normal;font-variant:normal;font-weight:400;font-stretch:normal;font-size:medium;line-height:normal;font-family:sans-serif;text-indent:0;text-align:start;text-decoration:none;text-decoration-line:none;text-decoration-style:solid;text-decoration-color:#000;letter-spacing:normal;word-spacing:normal;text-transform:none;direction:ltr;block-progression:tb;writing-mode:lr-tb;baseline-shift:baseline;text-anchor:start;white-space:normal;clip-rule:nonzero;display:inline;overflow:visible;visibility:visible;opacity:1;isolation:auto;mix-blend-mode:normal;color-interpolation:sRGB;color-interpolation-filters:linearRGB;solid-color:#000;solid-opacity:1;fill:#00b0f0;fill-opacity:1;fill-rule:evenodd;stroke:none;stroke-width:200;stroke-linecap:butt;stroke-linejoin:miter;stroke-miterlimit:4;stroke-dasharray:none;stroke-dashoffset:0;stroke-opacity:1;color-rendering:auto;image-rendering:auto;shape-rendering:auto;text-rendering:auto;enable-background:accumulate" id="path4721" d="m 853.7461,217.79382 c -29.0478,8.15555 -60.1878,19.10937 -94.5625,29.43359 -66.2279,19.89117 -223.2815,56.81836 -302.4941,56.81836 -130.4325,0 -208.0131,-34.94088 -286.4356,-54.35937 l 0,129.19922 c 78.4225,19.41849 156.0031,54.35937 286.4356,54.35937 79.2126,0 236.2662,-36.92719 302.4941,-56.81836 34.3747,-10.32422 65.5147,-21.27804 94.5625,-29.43359 z"/><path style="color:#000;font-style:normal;font-variant:normal;font-weight:400;font-stretch:normal;font-size:medium;line-height:normal;font-family:sans-serif;text-indent:0;text-align:start;text-decoration:none;text-decoration-line:none;text-decoration-style:solid;text-decoration-color:#000;letter-spacing:normal;word-spacing:normal;text-transform:none;direction:ltr;block-progression:tb;writing-mode:lr-tb;baseline-shift:baseline;text-anchor:start;white-space:normal;clip-rule:nonzero;display:inline;overflow:visible;visibility:visible;opacity:1;isolation:auto;mix-blend-mode:normal;color-interpolation:sRGB;color-interpolation-filters:linearRGB;solid-color:#000;solid-opacity:1;fill:#0080c0;fill-opacity:1;fill-rule:evenodd;stroke:none;stroke-width:200;stroke-linecap:butt;stroke-linejoin:miter;stroke-miterlimit:4;stroke-dasharray:none;stroke-dashoffset:0;stroke-opacity:1;color-rendering:auto;image-rendering:auto;shape-rendering:auto;text-rendering:auto;enable-background:accumulate" id="path4723" d="m 853.7461,346.99304 c -29.0478,8.15555 -60.1878,19.10937 -94.5625,29.43359 -66.2279,19.89117 -223.2815,56.81836 -302.4941,56.81836 -130.4325,0 -208.0131,-34.94088 -286.4356,-54.35937 l 0,225.46289 c 78.4225,19.41849 156.0031,54.35937 286.4356,54.35937 79.2126,0 236.2662,-36.92719 302.4941,-56.81836 34.3747,-10.32422 65.5147,-21.27804 94.5625,-29.43359 z"/><path style="color:#000;font-style:normal;font-variant:normal;font-weight:400;font-stretch:normal;font-size:medium;line-height:normal;font-family:sans-serif;text-indent:0;text-align:start;text-decoration:none;text-decoration-line:none;text-decoration-style:solid;text-decoration-color:#000;letter-spacing:normal;word-spacing:normal;text-transform:none;direction:ltr;block-progression:tb;writing-mode:lr-tb;baseline-shift:baseline;text-anchor:start;white-space:normal;clip-rule:nonzero;display:inline;overflow:visible;visibility:visible;opacity:1;isolation:auto;mix-blend-mode:normal;color-interpolation:sRGB;color-interpolation-filters:linearRGB;solid-color:#000;solid-opacity:1;fill:#00a0e0;fill-opacity:1;fill-rule:evenodd;stroke:none;stroke-width:200;stroke-linecap:butt;stroke-linejoin:miter;stroke-miterlimit:4;stroke-dasharray:none;stroke-dashoffset:0;stroke-opacity:1;color-rendering:auto;image-rendering:auto;shape-rendering:auto;text-rendering:auto;enable-background:accumulate" id="path4725" d="m 853.7461,572.45593 c -29.0478,8.15555 -60.1878,19.10937 -94.5625,29.43359 -66.2279,19.89117 -223.2815,56.81836 -302.4941,56.81836 -130.4325,0 -208.0131,-34.94088 -286.4356,-54.35937 l 0,261.56445 c 58.9858,23.41481 154.5798,46.125 286.4356,46.125 90.8084,0 255.4021,-39.40522 324.1289,-60.04687 26.5068,-7.96119 51.1956,-15.55575 72.9277,-21.90039 z"/></g></g></svg>